<?xml version="1.0" encoding="UTF-8" standalone="no"?><!DOCTYPE svg PUBLIC "-//W3C//DTD SVG 1.1//EN" "http://www.w3.org/Graphics/SVG/1.1/DTD/svg11.dtd"><svg width="100%" height="100%" viewBox="0 0 281 246" version="1.1" xmlns="http://www.w3.org/2000/svg" xmlns:xlink="http://www.w3.org/1999/xlink" xml:space="preserve" style="fill-rule:evenodd;clip-rule:evenodd;stroke-linejoin:round;stroke-miterlimit:1.41421;"><g id="Camera"><path id="Camera-Icon" d="M263.427,245.385l-244.947,0c-9.665,0 -17.497,-7.842 -17.497,-17.501l0,-163.295c0,-9.662 7.832,-17.5 17.497,-17.5l33.245,0c6.478,0 11.999,-3.208 15.205,-8.837l16.501,-28.983c3.205,-5.633 8.725,-8.837 15.204,-8.837l84.636,0c6.478,0 11.999,3.204 15.203,8.837l16.506,28.983c3.204,5.629 8.723,8.837 15.203,8.837l33.244,0c9.663,0 17.496,7.838 17.496,17.5l0,163.295c0,9.659 -7.833,17.501 -17.496,17.501Zm-122.473,-174.966c-38.652,0 -69.987,31.337 -69.987,69.981c0,38.658 31.335,69.991 69.987,69.991c38.65,0 69.985,-31.333 69.985,-69.991c0,-38.644 -31.335,-69.981 -69.985,-69.981Zm0,104.975c-19.327,0 -34.994,-15.66 -34.994,-34.994c0,-19.324 15.667,-34.987 34.994,-34.987c19.326,0 34.993,15.663 34.993,34.987c0,19.334 -15.667,34.994 -34.993,34.994Z" style="fill:#fff;"/></g></svg>