<?xml version="1.0" encoding="UTF-8" standalone="no"?><!DOCTYPE svg PUBLIC "-//W3C//DTD SVG 1.1//EN" "http://www.w3.org/Graphics/SVG/1.1/DTD/svg11.dtd"><svg width="100%" height="100%" viewBox="0 0 559 558" version="1.1" xmlns="http://www.w3.org/2000/svg" xmlns:xlink="http://www.w3.org/1999/xlink" xml:space="preserve" style="fill-rule:evenodd;clip-rule:evenodd;stroke-linejoin:round;stroke-miterlimit:1.41421;"><g id="Calque1"><circle cx="279.59" cy="279.406" r="278.594" style="fill:url(#_Linear1);"/><path d="M189.889,511.021c41.714,15.775 83.569,9.99 78.944,22.219c-4.624,12.228 -42.245,9.348 -83.959,-6.427c-41.715,-15.776 -71.827,-38.511 -67.202,-50.74c4.624,-12.228 30.503,19.172 72.217,34.948Z" style="fill:url(#_Linear2);"/><path id="Settings-Icon" d="M445.394,314.505l-33.931,0c-3.433,15.022 -9.581,28.924 -17.499,41.598l24.183,24.186c5.887,5.879 5.887,15.423 0,21.311l-21.316,21.315c-5.887,5.888 -15.43,5.888 -21.317,0l-24.049,-24.048c-12.682,8.023 -26.622,14.237 -41.732,17.676l0,33.625c0,8.315 -6.746,15.068 -15.072,15.068l-30.144,0c-8.325,0 -15.075,-6.753 -15.075,-15.068l0,-33.625c-15.11,-3.439 -29.045,-9.653 -41.728,-17.676l-24.048,24.048c-5.888,5.888 -15.434,5.888 -21.319,0l-21.316,-21.315c-5.888,-5.888 -5.888,-15.432 0,-21.311l24.183,-24.186c-7.921,-12.674 -14.066,-26.576 -17.498,-41.598l-33.935,0c-8.32,0 -15.07,-6.753 -15.07,-15.068l0,-30.153c0,-8.324 6.75,-15.068 15.07,-15.068l33.935,0c3.432,-15.022 9.577,-28.92 17.498,-41.594l-24.183,-24.186c-5.888,-5.891 -5.888,-15.431 0,-21.319l21.316,-21.319c5.885,-5.888 15.431,-5.888 21.319,0l24.048,24.048c12.683,-8.015 26.618,-14.228 41.728,-17.672l0,-33.616c0,-8.328 6.75,-15.077 15.075,-15.077l30.144,0c8.326,0 15.072,6.749 15.072,15.077l0,33.616c15.11,3.444 29.05,9.657 41.732,17.672l24.049,-24.048c5.887,-5.888 15.43,-5.888 21.317,0l21.316,21.319c5.887,5.888 5.887,15.428 0,21.319l-24.183,24.186c7.918,12.674 14.066,26.572 17.499,41.594l33.931,0c8.325,0 15.074,6.744 15.074,15.068l0,30.153c0,8.315 -6.749,15.068 -15.074,15.068Zm-165.806,-120.582c-49.949,0 -90.438,40.487 -90.438,90.429c0,49.96 40.489,90.446 90.438,90.446c49.95,0 90.441,-40.486 90.441,-90.446c0,-49.942 -40.491,-90.429 -90.441,-90.429Zm0,135.659c-24.972,0 -45.22,-20.254 -45.22,-45.23c0,-24.971 20.248,-45.216 45.22,-45.216c24.976,0 45.219,20.245 45.219,45.216c0,24.976 -20.243,45.23 -45.219,45.23Z" style="fill:#fff;"/></g><defs><linearGradient id="_Linear1" x1="0" y1="0" x2="1" y2="0" gradientUnits="userSpaceOnUse" gradientTransform="matrix(557.187,0,0,557.187,0.996027,279.406)"><stop offset="0%" style="stop-color:#87b16f;stop-opacity:1"/><stop offset="100%" style="stop-color:#879140;stop-opacity:1"/></linearGradient><linearGradient id="_Linear2" x1="0" y1="0" x2="1" y2="0" gradientUnits="userSpaceOnUse" gradientTransform="matrix(151.162,57.1664,-16.7581,44.3124,117.672,476.073)"><stop offset="0%" style="stop-color:#fff;stop-opacity:0.15171"/><stop offset="100%" style="stop-color:#cfcfcf;stop-opacity:0.15171"/></linearGradient></defs></svg>