<?xml version="1.0" encoding="UTF-8" standalone="no"?><!DOCTYPE svg PUBLIC "-//W3C//DTD SVG 1.1//EN" "http://www.w3.org/Graphics/SVG/1.1/DTD/svg11.dtd"><svg width="100%" height="100%" viewBox="0 0 451 452" version="1.1" xmlns="http://www.w3.org/2000/svg" xmlns:xlink="http://www.w3.org/1999/xlink" xml:space="preserve" style="fill-rule:evenodd;clip-rule:evenodd;stroke-linejoin:round;stroke-miterlimit:1.41421;"><g id="Calque3"><circle cx="225.902" cy="226" r="225.032" style="fill:url(#_Linear1);"/><path d="M153.447,413.085c33.694,12.742 67.502,8.07 63.767,17.947c-3.736,9.877 -34.124,7.551 -67.818,-5.191c-33.695,-12.743 -58.018,-31.107 -54.282,-40.985c3.735,-9.877 24.638,15.486 58.333,28.229Z" style="fill:url(#_Linear2);"/><path id="Search-Icon" d="M343.856,343.952c-6.028,6.033 -15.804,6.033 -21.834,0l-47.341,-47.342c-17.883,13.359 -39.995,21.356 -64.031,21.356c-59.218,0 -107.225,-47.999 -107.225,-107.217c0,-59.221 48.007,-107.225 107.225,-107.225c59.22,0 107.226,48.004 107.226,107.225c0,24.032 -8.005,46.148 -21.363,64.028l47.343,47.348c6.03,6.027 6.03,15.8 0,21.827Zm-133.206,-209.794c-42.298,0 -76.589,34.294 -76.589,76.591c0,42.295 34.291,76.589 76.589,76.589c42.299,0 76.591,-34.294 76.591,-76.589c0,-42.297 -34.292,-76.591 -76.591,-76.591Z" style="fill:#fff;"/></g><defs><linearGradient id="_Linear1" x1="0" y1="0" x2="1" y2="0" gradientUnits="userSpaceOnUse" gradientTransform="matrix(450.064,0,0,450.064,0.869801,226)"><stop offset="0%" style="stop-color:#2c817c;stop-opacity:1"/><stop offset="100%" style="stop-color:#2d4761;stop-opacity:1"/></linearGradient><linearGradient id="_Linear2" x1="0" y1="0" x2="1" y2="0" gradientUnits="userSpaceOnUse" gradientTransform="matrix(122.1,46.1758,-13.5362,35.7931,95.1137,384.856)"><stop offset="0%" style="stop-color:#fff;stop-opacity:0.15171"/><stop offset="100%" style="stop-color:#cfcfcf;stop-opacity:0.15171"/></linearGradient></defs></svg>