<?xml version="1.0" encoding="UTF-8" standalone="no"?><!DOCTYPE svg PUBLIC "-//W3C//DTD SVG 1.1//EN" "http://www.w3.org/Graphics/SVG/1.1/DTD/svg11.dtd"><svg width="100%" height="100%" viewBox="0 0 246 246" version="1.1" xmlns="http://www.w3.org/2000/svg" xmlns:xlink="http://www.w3.org/1999/xlink" xml:space="preserve" style="fill-rule:evenodd;clip-rule:evenodd;stroke-linejoin:round;stroke-miterlimit:1.41421;"><path id="Search-Icon" d="M240.481,240.952c-6.028,6.033 -15.804,6.033 -21.833,0l-47.342,-47.342c-17.883,13.359 -39.995,21.356 -64.031,21.356c-59.218,0 -107.225,-47.999 -107.225,-107.217c0,-59.221 48.007,-107.225 107.225,-107.225c59.22,0 107.226,48.004 107.226,107.225c0,24.032 -8.005,46.148 -21.363,64.028l47.343,47.348c6.03,6.027 6.03,15.8 0,21.827Zm-133.206,-209.794c-42.297,0 -76.589,34.294 -76.589,76.591c0,42.295 34.292,76.589 76.589,76.589c42.299,0 76.591,-34.294 76.591,-76.589c0,-42.297 -34.292,-76.591 -76.591,-76.591Z" style="fill:#fff;"/></svg>