<?xml version="1.0" encoding="UTF-8" standalone="no"?><!DOCTYPE svg PUBLIC "-//W3C//DTD SVG 1.1//EN" "http://www.w3.org/Graphics/SVG/1.1/DTD/svg11.dtd"><svg width="100%" height="100%" viewBox="0 0 451 452" version="1.1" xmlns="http://www.w3.org/2000/svg" xmlns:xlink="http://www.w3.org/1999/xlink" xml:space="preserve" style="fill-rule:evenodd;clip-rule:evenodd;stroke-linejoin:round;stroke-miterlimit:1.41421;"><g id="Calque4"><circle cx="225.129" cy="226" r="225.032" style="fill:url(#_Linear1);"/><path d="M155.079,413.085c33.694,12.742 67.502,8.07 63.766,17.947c-3.735,9.877 -34.123,7.551 -67.818,-5.191c-33.694,-12.743 -58.017,-31.107 -54.281,-40.985c3.735,-9.877 24.638,15.486 58.333,28.229Z" style="fill:url(#_Linear2);"/><path id="Bubble-Icon" d="M227.129,321.065c-7.938,0 -15.683,-0.73 -23.183,-2.076c-18.473,18.518 -42.389,30.751 -68.88,33.487c12.893,-13.236 21.35,-31.438 22.828,-51.789c-29.601,-19.406 -48.93,-50.82 -48.93,-86.4c0,-58.962 52.905,-106.763 118.165,-106.763c65.262,0 118.165,47.801 118.165,106.763c0,58.974 -52.903,106.778 -118.165,106.778Z" style="fill:#fff;"/></g><defs><linearGradient id="_Linear1" x1="0" y1="0" x2="1" y2="0" gradientUnits="userSpaceOnUse" gradientTransform="matrix(450.064,0,0,450.064,0.0971182,226)"><stop offset="0%" style="stop-color:#597a9f;stop-opacity:1"/><stop offset="100%" style="stop-color:#53037d;stop-opacity:1"/></linearGradient><linearGradient id="_Linear2" x1="0" y1="0" x2="1" y2="0" gradientUnits="userSpaceOnUse" gradientTransform="matrix(122.1,46.1758,-13.5362,35.7931,96.7456,384.856)"><stop offset="0%" style="stop-color:#fff;stop-opacity:0.15171"/><stop offset="100%" style="stop-color:#cfcfcf;stop-opacity:0.15171"/></linearGradient></defs></svg>