<?xml version="1.0" encoding="UTF-8" standalone="no"?><!DOCTYPE svg PUBLIC "-//W3C//DTD SVG 1.1//EN" "http://www.w3.org/Graphics/SVG/1.1/DTD/svg11.dtd"><svg width="100%" height="100%" viewBox="0 0 451 452" version="1.1" xmlns="http://www.w3.org/2000/svg" xmlns:xlink="http://www.w3.org/1999/xlink" xml:space="preserve" style="fill-rule:evenodd;clip-rule:evenodd;stroke-linejoin:round;stroke-miterlimit:1.41421;"><g id="Camera"><circle cx="225.134" cy="226" r="225.032" style="fill:url(#_Linear1);"/><path d="M152.68,413.085c33.694,12.742 67.502,8.07 63.766,17.947c-3.735,9.877 -34.123,7.551 -67.818,-5.191c-33.694,-12.743 -58.017,-31.107 -54.282,-40.985c3.736,-9.877 24.639,15.486 58.334,28.229Z" style="fill:url(#_Linear2);"/><path id="Camera-Icon" d="M347.608,341.476l-244.947,0c-9.664,0 -17.497,-7.841 -17.497,-17.5l0,-163.295c0,-9.662 7.833,-17.5 17.497,-17.5l33.246,0c6.478,0 11.998,-3.208 15.204,-8.837l16.502,-28.983c3.204,-5.633 8.725,-8.837 15.204,-8.837l84.635,0c6.479,0 12,3.204 15.204,8.837l16.505,28.983c3.204,5.629 8.724,8.837 15.204,8.837l33.243,0c9.664,0 17.496,7.838 17.496,17.5l0,163.295c0,9.659 -7.832,17.5 -17.496,17.5Zm-122.473,-174.965c-38.651,0 -69.986,31.337 -69.986,69.981c0,38.657 31.335,69.991 69.986,69.991c38.651,0 69.986,-31.334 69.986,-69.991c0,-38.644 -31.335,-69.981 -69.986,-69.981Zm0,104.975c-19.326,0 -34.994,-15.66 -34.994,-34.994c0,-19.324 15.668,-34.987 34.994,-34.987c19.326,0 34.994,15.663 34.994,34.987c0,19.334 -15.668,34.994 -34.994,34.994Z" style="fill:#fff;"/></g><defs><linearGradient id="_Linear1" x1="0" y1="0" x2="1" y2="0" gradientUnits="userSpaceOnUse" gradientTransform="matrix(450.064,0,0,450.064,0.102496,226)"><stop offset="0%" style="stop-color:#b4556d;stop-opacity:0.898039"/><stop offset="100%" style="stop-color:#874040;stop-opacity:1"/></linearGradient><linearGradient id="_Linear2" x1="0" y1="0" x2="1" y2="0" gradientUnits="userSpaceOnUse" gradientTransform="matrix(122.1,46.1758,-13.5362,35.7931,94.3464,384.856)"><stop offset="0%" style="stop-color:#fff;stop-opacity:0.15171"/><stop offset="100%" style="stop-color:#cfcfcf;stop-opacity:0.15171"/></linearGradient></defs></svg>