<?xml version="1.0" encoding="UTF-8" standalone="no"?><!DOCTYPE svg PUBLIC "-//W3C//DTD SVG 1.1//EN" "http://www.w3.org/Graphics/SVG/1.1/DTD/svg11.dtd"><svg width="100%" height="100%" viewBox="0 0 281 246" version="1.1" xmlns="http://www.w3.org/2000/svg" xmlns:xlink="http://www.w3.org/1999/xlink" xml:space="preserve" style="fill-rule:evenodd;clip-rule:evenodd;stroke-linejoin:round;stroke-miterlimit:1.41421;"><g id="Camera"><path id="Camera-Icon" d="M263.241,245.476l-244.946,0c-9.665,0 -17.497,-7.841 -17.497,-17.5l0,-163.295c0,-9.662 7.832,-17.5 17.497,-17.5l33.245,0c6.478,0 11.998,-3.208 15.204,-8.837l16.502,-28.983c3.204,-5.633 8.725,-8.837 15.204,-8.837l84.635,0c6.479,0 12,3.204 15.204,8.837l16.505,28.983c3.205,5.629 8.724,8.837 15.204,8.837l33.243,0c9.664,0 17.497,7.838 17.497,17.5l0,163.295c0,9.659 -7.833,17.5 -17.497,17.5Zm-122.473,-174.965c-38.651,0 -69.986,31.337 -69.986,69.981c0,38.657 31.335,69.991 69.986,69.991c38.651,0 69.986,-31.334 69.986,-69.991c0,-38.644 -31.335,-69.981 -69.986,-69.981Zm0,104.975c-19.326,0 -34.994,-15.66 -34.994,-34.994c0,-19.324 15.668,-34.987 34.994,-34.987c19.326,0 34.994,15.663 34.994,34.987c0,19.334 -15.668,34.994 -34.994,34.994Z" style="fill:#fff;"/></g></svg>