<?xml version="1.0" encoding="UTF-8" standalone="no"?><!DOCTYPE svg PUBLIC "-//W3C//DTD SVG 1.1//EN" "http://www.w3.org/Graphics/SVG/1.1/DTD/svg11.dtd"><svg width="100%" height="100%" viewBox="0 0 452 452" version="1.1" xmlns="http://www.w3.org/2000/svg" xmlns:xlink="http://www.w3.org/1999/xlink" xml:space="preserve" style="fill-rule:evenodd;clip-rule:evenodd;stroke-linejoin:round;stroke-miterlimit:1.41421;"><g id="Calque1"><circle cx="225.974" cy="226" r="225.032" style="fill:url(#_Linear1);"/><path d="M153.519,413.085c33.695,12.742 67.503,8.07 63.767,17.947c-3.735,9.877 -34.124,7.551 -67.818,-5.191c-33.694,-12.743 -58.017,-31.107 -54.282,-40.985c3.736,-9.877 24.639,15.486 58.333,28.229Z" style="fill:url(#_Linear2);"/><path id="Music-Icon" d="M154.32,139.245l173.346,-35.721l-0.159,51.026l0,127.564l-0.127,0c0.016,14.813 -16.455,29.601 -39.339,34.295c-25.053,5.134 -48.243,-3.769 -51.793,-19.881c-3.549,-16.126 13.883,-33.358 38.936,-38.496c11.651,-2.388 22.869,-1.709 31.925,1.282l0,-100.52l-132.584,27.567l0,126.372l-0.126,0c0.016,14.808 -16.454,29.593 -39.339,34.287c-25.054,5.14 -48.243,-3.76 -51.794,-19.883c-3.549,-16.112 13.883,-33.35 38.936,-38.485c11.651,-2.399 22.871,-1.718 31.925,1.279l0,-150.686l0.193,0Z" style="fill:#fff;"/></g><defs><linearGradient id="_Linear1" x1="0" y1="0" x2="1" y2="0" gradientUnits="userSpaceOnUse" gradientTransform="matrix(450.064,0,0,450.064,0.942392,226)"><stop offset="0%" style="stop-color:#87b16f;stop-opacity:1"/><stop offset="100%" style="stop-color:#879140;stop-opacity:1"/></linearGradient><linearGradient id="_Linear2" x1="0" y1="0" x2="1" y2="0" gradientUnits="userSpaceOnUse" gradientTransform="matrix(122.1,46.1758,-13.5362,35.7931,95.1863,384.856)"><stop offset="0%" style="stop-color:#fff;stop-opacity:0.15171"/><stop offset="100%" style="stop-color:#cfcfcf;stop-opacity:0.15171"/></linearGradient></defs></svg>