<?xml version="1.0" encoding="UTF-8" standalone="no"?><!DOCTYPE svg PUBLIC "-//W3C//DTD SVG 1.1//EN" "http://www.w3.org/Graphics/SVG/1.1/DTD/svg11.dtd"><svg width="100%" height="100%" viewBox="0 0 246 246" version="1.1" xmlns="http://www.w3.org/2000/svg" xmlns:xlink="http://www.w3.org/1999/xlink" xml:space="preserve" style="fill-rule:evenodd;clip-rule:evenodd;stroke-linejoin:round;stroke-miterlimit:1.41421;"><path id="Music-Icon" d="M72.005,36.245l173.346,-35.721l-0.159,51.026l0,127.564l-0.127,0c0.016,14.813 -16.454,29.601 -39.339,34.295c-25.053,5.134 -48.243,-3.769 -51.793,-19.881c-3.549,-16.126 13.883,-33.358 38.936,-38.496c11.651,-2.388 22.869,-1.709 31.925,1.282l0,-100.52l-132.584,27.567l0,126.372l-0.126,0c0.016,14.808 -16.454,29.593 -39.339,34.287c-25.054,5.14 -48.243,-3.76 -51.794,-19.883c-3.549,-16.112 13.883,-33.35 38.936,-38.485c11.652,-2.399 22.871,-1.718 31.925,1.279l0,-150.686l0.193,0Z" style="fill:#fff;"/></svg>