<?xml version="1.0" encoding="UTF-8" standalone="no"?><!DOCTYPE svg PUBLIC "-//W3C//DTD SVG 1.1//EN" "http://www.w3.org/Graphics/SVG/1.1/DTD/svg11.dtd"><svg width="100%" height="100%" viewBox="0 0 291 246" version="1.1" xmlns="http://www.w3.org/2000/svg" xmlns:xlink="http://www.w3.org/1999/xlink" xml:space="preserve" style="fill-rule:evenodd;clip-rule:evenodd;stroke-linejoin:round;stroke-miterlimit:1.41421;"><path id="Users-Icon" d="M205.141,154.278c18.318,-15.672 30.935,-48.513 30.935,-82.311c0,-42.444 -22.676,-71.443 -54.314,-71.443c-7.582,0 -14.65,1.661 -21.012,4.779c13.242,16.416 21.012,39.75 21.012,66.664c0,20.539 -3.88,40.577 -10.72,57.907l0.282,0.15c12.558,6.621 24.082,14.925 33.817,24.254l0,0Zm13.385,14.962c6.291,-5.681 12.168,-12.721 17.55,-20.726c30.901,16.292 54.315,44.406 54.315,66.342c0,13.454 -13.14,22.537 -36.209,25.516c-8.667,2.269 -18.152,3.562 -30.568,4.278c7.949,-7.402 12.462,-17.291 12.462,-29.794c0,-15.279 -6.574,-31.126 -17.55,-45.616l0,0Zm-54.87,-20.726c-14.885,22.129 -33.553,36.936 -54.314,35.719c-20.761,1.217 -39.428,-13.59 -54.315,-35.719c-30.901,16.292 -54.314,44.406 -54.314,66.342c0,13.454 13.134,22.537 36.209,25.516c16.421,4.295 35.767,5.104 72.42,5.104c36.653,0 56.003,-0.809 72.42,-5.104c23.07,-2.979 36.21,-12.062 36.21,-25.516c0,-21.936 -23.415,-50.05 -54.316,-66.342Zm-54.314,15.31c30.072,0 54.314,-45.004 54.314,-91.857c0,-42.444 -22.676,-71.443 -54.314,-71.443c-31.642,0 -54.315,28.993 -54.315,71.443c0,46.853 24.243,91.857 54.315,91.857Z" style="fill:#fff;fill-rule:nonzero;"/></svg>