<?xml version="1.0" encoding="UTF-8" standalone="no"?><!DOCTYPE svg PUBLIC "-//W3C//DTD SVG 1.1//EN" "http://www.w3.org/Graphics/SVG/1.1/DTD/svg11.dtd"><svg width="100%" height="100%" viewBox="0 0 246 246" version="1.1" xmlns="http://www.w3.org/2000/svg" xmlns:xlink="http://www.w3.org/1999/xlink" xml:space="preserve" style="fill-rule:evenodd;clip-rule:evenodd;stroke-linejoin:round;stroke-miterlimit:1.41421;"><path id="User-Icon" d="M204.735,241.471c-18.55,3.09 -40.364,3.914 -81.694,3.914c-41.327,0 -63.143,-0.824 -81.691,-3.914c-25.98,-4.326 -40.792,-13.59 -40.792,-29.153c0,-20.559 26.456,-49.231 63.239,-65.824c14.866,22.54 35.856,37.656 59.244,37.656c23.388,0 44.379,-15.116 59.245,-37.656c36.782,16.593 63.238,45.265 63.238,65.824c0,15.563 -14.811,24.827 -40.789,29.153Zm-81.694,-77.736c-33.905,0 -61.24,-45.007 -61.24,-91.254c0,-43.06 25.565,-72.049 61.24,-72.049c35.676,0 61.243,28.989 61.243,72.049c0,46.247 -27.338,91.254 -61.243,91.254Z" style="fill:#fff;"/></svg>