<?xml version="1.0" encoding="UTF-8" standalone="no"?><!DOCTYPE svg PUBLIC "-//W3C//DTD SVG 1.1//EN" "http://www.w3.org/Graphics/SVG/1.1/DTD/svg11.dtd"><svg width="100%" height="100%" viewBox="0 0 246 246" version="1.1" xmlns="http://www.w3.org/2000/svg" xmlns:xlink="http://www.w3.org/1999/xlink" xml:space="preserve" style="fill-rule:evenodd;clip-rule:evenodd;stroke-linejoin:round;stroke-miterlimit:1.41421;"><g id="Video"><path id="Video-Icon" d="M229.861,245.385l-214.338,0c-8.454,0 -15.309,-6.853 -15.309,-15.305l0,-214.343c0,-8.449 6.855,-15.305 15.309,-15.305l214.338,0c8.455,0 15.311,6.856 15.311,15.305l0,214.343c0,8.452 -6.856,15.305 -15.311,15.305Zm-117.375,-20.415l20.413,0l0,-20.409l-20.413,0l0,20.409Zm58.273,-97.311c1.882,-1.064 2.947,-2.849 2.947,-4.957c0,-2.094 -1.065,-3.891 -2.947,-4.949l-79.92,-45.088c-1.898,-1.072 -4.067,-1.08 -5.976,-0.025c-1.91,1.05 -2.996,2.855 -2.996,4.983l0,90.172c0,2.119 1.086,3.924 2.996,4.983c1.909,1.046 4.076,1.038 5.976,-0.034l79.92,-45.085Zm-99.1,97.311l20.413,0l0,-20.409l-20.413,0l0,20.409Zm-20.413,-204.126l-20.412,0l0,20.411l20.412,0l0,-20.411Zm0,183.717l-20.412,0l0,20.409l20.412,0l0,-20.409Zm40.826,-183.717l-20.413,0l0,20.411l20.413,0l0,-20.411Zm40.827,0l-20.413,0l0,20.411l20.413,0l0,-20.411Zm40.826,0l-20.414,0l0,20.411l20.414,0l0,-20.411Zm0,183.717l-20.414,0l0,20.409l20.414,0l0,-20.409Zm40.826,-183.717l-20.413,0l0,20.411l20.413,0l0,-20.411Zm0,183.717l-20.413,0l0,20.409l20.413,0l0,-20.409Z" style="fill:#fff;"/></g></svg>